<svg xmlns:xlink="http://www.w3.org/1999/xlink" id="header-logo" data-name="Layer 1" xmlns="http://www.w3.org/2000/svg" viewBox="0 0 277.7 212.3" width="277.7"  height="212.3" ><defs><style>.cls-1{fill:#222;}.cls-2{fill:#ffce00;}</style></defs><title>new-logo-2</title><path class="cls-1" d="M276.5,164.9,260,123.4l10.2-41.5A8.4,8.4,0,0,0,262,71.5a8.5,8.5,0,0,0,.3-2.4V38.7l13.3-26A8.4,8.4,0,0,0,268.1.5h-1.3l-8.2,1.2a8.5,8.5,0,0,0-6.1,4.3L249,12.4l-1.7-3.2a8.4,8.4,0,0,0-7.4-4.5h-1.3L230,6.1a8.4,8.4,0,0,0-3,1.1L225,7h-1.3l-35.1,5.3a8.4,8.4,0,0,0-4.7,2.4,8.4,8.4,0,0,0-4-1h-1.3l-9,1.4a8.4,8.4,0,0,0-6.9,6.3,8.4,8.4,0,0,0-7.2-4.1h-1.3l-8.9,1.4a8.4,8.4,0,0,0-7.2,8.3v8.7c-3.8-8-11-12.5-20.7-12.5a39.7,39.7,0,0,0-8.4,1c-10.2,2.2-15.9,7.1-19,13.2V37a8.4,8.4,0,0,0-8.4-8.4H80.4l-9,1.3a8.4,8.4,0,0,0-6,4,8.4,8.4,0,0,0-5.6-2.2H58.5L49,33.4a8.4,8.4,0,0,0-6,4L34,52.6,25.5,41.4a8.5,8.5,0,0,0-6.7-3.3H17.5L7.8,39.6A8.5,8.5,0,0,0,.6,48V106a8.4,8.4,0,0,0,2.6,6,8.4,8.4,0,0,0-2.6,6.1v16.2A8.4,8.4,0,0,0,9,142.8h1.3l20.5-3.1v17H28.6L7.8,159.8a8.4,8.4,0,0,0-7.1,8.3v10.4C.4,188.8,3.1,197.1,8.9,203c7.8,8,18.4,8.9,22.6,8.9H33c13.9-.9,23.7-5.1,29.4-12.7a8.4,8.4,0,0,0,8.3,7.2H72l22.2-3.4a8.5,8.5,0,0,0,6.7-5.5,8.4,8.4,0,0,0,6.7,3.4h1.3l21.7-3.3a8.4,8.4,0,0,0,4.8-2.5,8.4,8.4,0,0,0,4,1h1.3l22.6-3.4a8.4,8.4,0,0,0,6.9-6.3l.5-1.9.2.5a8.4,8.4,0,0,0,7.8,5.3h1.3l21.7-3.3a8.4,8.4,0,0,0,3.6-1.5,8.4,8.4,0,0,0,2.5.4h1.3l22.6-3.4a8.4,8.4,0,0,0,6.9-6.3l.5-1.9.2.5a8.4,8.4,0,0,0,7.8,5.3h1.3l21.7-3.3a8.4,8.4,0,0,0,6.6 -11.4Z" stroke="#231F20" fill="#222222" stroke-width="2.5px"></path><path class="cls-2" d="M61.2,98.4V40.3a1.5,1.5,0,0,0-1.7-1.4l-9.5,1.4a1.5,1.5,0,0,0-1,.7L34.7,65,19.9,45.6a1.5,1.5,0,0,0-1.4-.6L8.8,46.5A1.5,1.5,0,0,0,7.6,48V106a1.5,1.5,0,0,0,1.7,1.4l8.9-1.3a1.5,1.5,0,0,0,1.2-1.4V65.2l14,19.3a1.5,1.5,0,0,0,2.4-.1L49.4,63V99.7a1.5,1.5,0,0,0,1.7,1.4L60,99.8A1.5,1.5,0,0,0,61.2,98.4Z" fill="#FFCE00"></path><path class="cls-2" d="M83.1,95.1V37a1.5,1.5,0,0,0-1.7-1.4l-9,1.3a1.5,1.5,0,0,0-1.2,1.4V96.4a1.5,1.5,0,0,0,1.7,1.4l9-1.4A1.5,1.5,0,0,0,83.1,95.1Z" fill="#FFCE00"></path><path class="cls-2" d="M201.3,76.8V29.5l-11.2,1.7a1.5,1.5,0,0,1-1.7-1.4V20.7a1.5,1.5,0,0,1,1.2-1.4L224.8,14a1.5,1.5,0,0,1,1.7,1.4v9.1a1.5,1.5,0,0,1-1.2,1.4l-12,1.8V75.5a1.5,1.5,0,0,1-1.2,1.4L203,78.2A1.5,1.5,0,0,1,201.3,76.8Z" fill="#FFCE00"></path><path class="cls-2" d="M243.5,38.7V70.5a1.4,1.4,0,0,0,1.6,1.4l9-1.3a1.4,1.4,0,0,0,1.2-1.4v-32l14-27.5a1.5,1.5,0,0,0-1.5-2.1l-8.2,1.2a1.5,1.5,0,0,0-1.1.7l-9.7,17.7-7.7-14.6a1.5,1.5,0,0,0-1.5-.8L231,13a1.5,1.5,0,0,0-1,2.2Z" fill="#FFCE00"></path><path class="cls-2" d="M116.9,57.4l16.5-2.5a1.5,1.5,0,0,1,1.7,1.5v4.4c.1,24.1-2.8,28.2-20.8,30.9C92.9,94.9,93.1,74.8,93.1,63.3c-.1-15.6,0-28.3,17.5-32.1,20.9-4.6,23,11.2,23.5,16.1a1.4,1.4,0,0,1-1.2,1.6l-9,1.4a1.4,1.4,0,0,1-1.6-1.2c-.4-2.5-1.1-7.2-7.7-6.3-8.4,1.3-9.9,5.8-9.5,21.3.3,12.2,1.5,16.7,9,15.6s8.7-2.8,9.2-10.4l-6,.8a1.5,1.5,0,0,1-1.6-1.4V58.8A1.5,1.5,0,0,1,116.9,57.4Z" fill="#FFCE00"></path><path class="cls-2" d="M157.1,83.9V60.4l12.5-1.9V81.6a1.5,1.5,0,0,0,1.7,1.4l9-1.3a1.5,1.5,0,0,0,1.2-1.4V22.2a1.5,1.5,0,0,0-1.7-1.4l-9,1.4a1.5,1.5,0,0,0-1.2,1.4V46.4l-12.5,1.9V25.9a1.5,1.5,0,0,0-1.7-1.4l-8.9,1.4a1.5,1.5,0,0,0-1.2,1.4V85.3a1.5,1.5,0,0,0,1.7,1.4l8.9-1.4A1.5,1.5,0,0,0,157.1,83.9Z" fill="#FFCE00"></path><path class="cls-2" d="M130.7,188.9l-9.5-87.6a1.5,1.5,0,0,0-1.7-1.3l-38.7,5.9a1.5,1.5,0,0,0-1.2,1.3L69.3,197.8a1.5,1.5,0,0,0,1.7,1.6L93.2,196a1.5,1.5,0,0,0,1.2-1.3l1.4-21.9,9.1-1.4,1.3,21a1.5,1.5,0,0,0,1.7,1.3l21.7-3.3A1.5,1.5,0,0,0,130.7,188.9Zm-28.4-36.4-3.4.5a1.5,1.5,0,0,1-1.7-1.5l1.8-28.1a1.5,1.5,0,0,1,2.9,0l1.6,27.6A1.5,1.5,0,0,1,102.3,152.5Z" fill="#FFCE00"></path><path class="cls-2" d="M184.4,134.3l10.7-43.7a1.5,1.5,0,0,0-1.6-1.8l-22.8,3.5a1.5,1.5,0,0,0-1.2,1.1l-4.6,19-6.8-17a1.5,1.5,0,0,0-1.6-.9l-21.7,3.3a1.5,1.5,0,0,0-1.1,2l15.9,39.8L138,187.2a1.5,1.5,0,0,0,1.6,1.8l22.6-3.4a1.5,1.5,0,0,0,1.2-1.1l5.7-22.7,8.2,20.4a1.5,1.5,0,0,0,1.6.9l21.7-3.3a1.5,1.5,0,0,0,1.1-2Z" fill="#FFCE00"></path><path class="cls-2" d="M252.7,123.9l10.7-43.7a1.5,1.5,0,0,0-1.6-1.8L239,82a1.5,1.5,0,0,0-1.2,1.1l-4.6,19-6.8-17a1.5,1.5,0,0,0-1.6-.9l-21.7,3.3a1.5,1.5,0,0,0-1.1,2l15.9,39.8-11.6,47.7a1.5,1.5,0,0,0,1.6,1.8l22.6-3.4a1.5,1.5,0,0,0,1.2-1.1l5.7-22.7,8.2,20.4a1.5,1.5,0,0,0,1.6.9l21.7-3.3a1.5,1.5,0,0,0,1.1-2Z" fill="#FFCE00"></path><path class="cls-2" d="M31.3,164.9v15.8a1.5,1.5,0,0,0,1.7,1.4l3.6-.5a1.5,1.5,0,0,0,1.2-1.4V131.5L9.3,135.8a1.5,1.5,0,0,1-1.7-1.4V118.1a1.5,1.5,0,0,1,1.2-1.4L59.6,109a1.5,1.5,0,0,1,1.7,1.4V179c.1,17-9.6,24.6-28.7,25.9,0,0-25.7,2-24.9-26.2V168.1a1.5,1.5,0,0,1,1.2-1.4l20.8-3.2A1.5,1.5,0,0,1,31.3,164.9Z" fill="#FFCE00"></path></svg>